<svg id="レイヤー_1" data-name="レイヤー 1" xmlns="http://www.w3.org/2000/svg" viewBox="0 0 120.76 78.81"><defs><style>.cls-1{fill:#040000;}</style></defs><title>ico-phone</title><path class="cls-1" d="M134.81,122.43c0,10.44,8.22,15.51,14.84,15.51s14.84-5.06,14.84-15.51c0-8.11-8-14.59-14.84-18.46C142.84,107.84,134.81,114.32,134.81,122.43Z" transform="translate(-58.97 -76.98)"/><path class="cls-1" d="M74.47,122.6c0,10.45,8.22,15.51,14.85,15.51s14.84-5.06,14.84-15.51c0-8.11-8-14.58-14.84-18.46C82.5,108,74.47,114.5,74.47,122.6Z" transform="translate(-58.97 -76.98)"/><path class="cls-1" d="M59,77v78.81H179.73V77H59ZM179.71,96.15c-7.25,0-16.07,1.36-23,4.36,7.46,5,14.68,12.55,14.68,22.09a22.43,22.43,0,0,1-22.22,22.25,22.13,22.13,0,0,1-21.87-22.25c0-9.54,6.86-17.1,14.32-22.09a59.27,59.27,0,0,0-44.61,0c7.46,5,14.32,12.55,14.32,22.09a22.13,22.13,0,0,1-21.87,22.25c-11.65,0-22.39-9.64-22.39-22.25,0-9.54,7.38-17.1,14.84-22.09-6.91-3-15.71-4.36-23-4.36v-6.9c12.27,0,23.12,3.06,30.51,6.9a65,65,0,0,1,29.85-6.9,65,65,0,0,1,29.85,6.9c7.38-3.84,18.26-6.9,30.53-6.9v6.9Z" transform="translate(-58.97 -76.98)"/></svg>