<svg id="レイヤー_1" data-name="レイヤー 1" xmlns="http://www.w3.org/2000/svg" viewBox="0 0 311.81 30.63"><defs><style>.cls-1{fill:#fff;}</style></defs><title>hero-copy</title><path class="cls-1" d="M271.56,233.32a9.73,9.73,0,0,0-.4,2.37c0,1.49,1.42,2.58,4.81,2.58a33.27,33.27,0,0,0,8.25-.92l0,3.29a35.84,35.84,0,0,1-8.15.81c-5.38,0-8.08-1.8-8.08-5a15.1,15.1,0,0,1,.47-3.39Zm-2-10a61.48,61.48,0,0,0,6.4.28c2.32,0,5-.14,6.8-0.33v3.15c-1.64.12-4.55,0.28-6.78,0.28-2.46,0-4.5-.12-6.42-0.26v-3.13Z" transform="translate(-268.01 -212)"/><path class="cls-1" d="M312.15,239.19a6.21,6.21,0,0,1-4.41,1.78c-1.75,0-2.94-1.3-2.94-3.55,0-2.56.83-6,.83-8.13a1.49,1.49,0,0,0-1.56-1.73c-1.75,0-4.31,2.16-6.21,4.27,0,0.66,0,1.3,0,1.9,0,1.92,0,3.89.14,6.09,0,0.43.12,1.28,0.17,1.8H294.9c0-.5.07-1.35,0.07-1.73,0-1.82,0-3.17.1-5.17-1,1.49-2.16,3.22-3,4.34l-1.85-2.61c1.33-1.61,3.7-4.74,5-6.71l0.1-1.63-4.27.55-0.28-3a20,20,0,0,0,2,0c0.69,0,1.71-.17,2.7-0.31,0-.88.09-1.54,0.09-1.8a12.55,12.55,0,0,0-.09-2.08l3.44,0.09c-0.14.66-.33,1.87-0.52,3.34l0.88,1.11c-0.31.4-.81,1.16-1.21,1.78a3.51,3.51,0,0,1,0,.5c1.85-1.61,4.55-3.48,6.82-3.48,2.51,0,3.7,1.49,3.7,3.46,0,2.44-.78,5.88-0.78,8.32a0.88,0.88,0,0,0,.9,1,4.73,4.73,0,0,0,3-1.66Z" transform="translate(-268.01 -212)"/><path class="cls-1" d="M326.28,221.9c-0.14.62-.31,1.35-0.43,1.94s-0.31,1.56-.47,2.42c0.78,0,1.49-.09,2-0.09,2.49,0,4.24,1.11,4.24,4.48,0,2.77-.33,6.52-1.33,8.55-0.78,1.64-2.08,2.16-3.86,2.16a13.1,13.1,0,0,1-2.8-.33l-0.52-3.1a13.51,13.51,0,0,0,2.87.5,1.71,1.71,0,0,0,1.75-1c0.66-1.3,1-4.1,1-6.42,0-1.87-.81-2.13-2.3-2.13-0.38,0-.95,0-1.61.09-0.9,3.55-2.61,9.08-4.76,12.54l-3.08-1.23c2.3-3.08,3.89-7.77,4.74-11-0.83.09-1.56,0.19-2,.26-0.66.07-1.87,0.24-2.61,0.36l-0.26-3.18a21.66,21.66,0,0,0,2.49,0c0.73,0,1.85-.09,3-0.19a26,26,0,0,0,.5-5Zm8.1,2.2a42.29,42.29,0,0,1,4.1,8.72l-3,1.4a27.12,27.12,0,0,0-4-8.93Z" transform="translate(-268.01 -212)"/><path class="cls-1" d="M347.06,231.73A11.5,11.5,0,0,1,354,229.5c4.12,0,6.52,2.54,6.52,5.38,0,4.29-3.39,7.58-13.15,6.73l-0.9-3.08c7,1,10.76-.73,10.76-3.72,0-1.52-1.45-2.63-3.51-2.63a8.23,8.23,0,0,0-6.47,2.75,5.07,5.07,0,0,0-.88,1.37l-2.73-.69a85.48,85.48,0,0,0,1.16-9.79l3.17,0.43C347.63,227.56,347.23,230.38,347.06,231.73Zm0.73-10.19a74.28,74.28,0,0,0,9.38,1.82l-0.71,2.89c-2.37-.31-7.61-1.4-9.43-1.87Z" transform="translate(-268.01 -212)"/><path class="cls-1" d="M375.49,238.74c0.9-.12,1.56-0.24,2.18-0.38,3-.71,5.33-2.87,5.33-6.28,0-3.25-1.75-5.66-4.9-6.21a51,51,0,0,1-1.4,6.37c-1.4,4.74-3.44,7.63-6,7.63s-4.79-2.87-4.79-6.82c0-5.4,4.71-10,10.8-10,5.81,0,9.48,4.05,9.48,9.17,0,4.93-3,8.44-9,9.34Zm-1.82-7.11a37.6,37.6,0,0,0,1.26-5.69,7.36,7.36,0,0,0-5.95,6.8c0,2.37.95,3.53,1.82,3.53S372.72,234.81,373.67,231.64Z" transform="translate(-268.01 -212)"/><path class="cls-1" d="M411.22,233.39s0,0.76-.09,1.14c-0.38,4.31-.85,6.26-1.61,7a3.32,3.32,0,0,1-2.35.92c-0.83.07-2.27,0-3.77,0a5.59,5.59,0,0,0-.92-2.58c1.47,0.12,3,.14,3.6.14a1.56,1.56,0,0,0,1-.24c0.43-.36.78-1.54,1-3.89h-6.23c-1.18,3.06-3.7,5.36-9.67,6.66a7.56,7.56,0,0,0-1.47-2.46c4.62-.9,6.82-2.3,7.94-4.19h-6.92v-2.54h7.84c0.09-.52.19-1.07,0.26-1.63H393.4V221.64h17v10.12h-7.56c-0.07.57-.17,1.09-0.26,1.63h8.6Zm-15-7.8h4.17V224h-4.17v1.64Zm0,3.84h4.17v-1.66h-4.17v1.66ZM407.47,224h-4.24v1.64h4.24V224Zm0,3.81h-4.24v1.66h4.24v-1.66Z" transform="translate(-268.01 -212)"/><path class="cls-1" d="M426.67,238.74c0.9-.12,1.56-0.24,2.18-0.38,3-.71,5.33-2.87,5.33-6.28,0-3.25-1.75-5.66-4.91-6.21a51,51,0,0,1-1.4,6.37c-1.4,4.74-3.44,7.63-6,7.63s-4.79-2.87-4.79-6.82c0-5.4,4.72-10,10.81-10,5.8,0,9.48,4.05,9.48,9.17,0,4.93-3,8.44-9,9.34Zm-1.82-7.11a37.73,37.73,0,0,0,1.26-5.69,7.36,7.36,0,0,0-5.95,6.8c0,2.37.95,3.53,1.82,3.53S423.9,234.81,424.85,231.64Z" transform="translate(-268.01 -212)"/><path class="cls-1" d="M448.09,242.18a44.45,44.45,0,0,0-5.09-5.24l2.46-2.13a44.36,44.36,0,0,1,5.17,5.19Z" transform="translate(-268.01 -212)"/><path class="cls-1" d="M471.54,237.06c1.64,1.8,4.34,2.68,8.34,3a10.87,10.87,0,0,0-1.68,2.61c-4.88-.57-7.75-2.11-9.6-5.21-1.26,2.54-3.89,4.22-9.74,5.17a8.33,8.33,0,0,0-1.4-2.54c4.5-.59,6.73-1.54,7.91-3H457.9V234.6h8.58c0.1-.45.17-0.92,0.24-1.45H458v-2.51h9.05v-1.21h-7v-2.37h7v-1.21H459v-2.49h4.1a9.43,9.43,0,0,0-1.23-2l2.49-1a9.37,9.37,0,0,1,1.75,2.7l-0.55.24h5.88l-0.66-.19a15.6,15.6,0,0,0,1.61-2.77l3,0.76c-0.57.83-1.14,1.59-1.61,2.2h4.38v2.49H470v1.21h7.25v2.37H470v1.21h9.15v2.51H469.7a14.06,14.06,0,0,1-.21,1.45h9.91v2.46h-7.84Z" transform="translate(-268.01 -212)"/><path class="cls-1" d="M497,227.25a42,42,0,0,1-4.55.78c-0.21,1-.45,2-0.71,3A76.78,76.78,0,0,1,488,241.9l-3.29-1.09a52.28,52.28,0,0,0,4.05-10.57c0.17-.64.36-1.3,0.5-2-0.55,0-1.07,0-1.54,0-1.14,0-2,0-2.84-.09l-0.07-2.91a22.78,22.78,0,0,0,3,.17c0.69,0,1.37,0,2.08-.07,0.1-.5.17-1,0.21-1.33a12.36,12.36,0,0,0,.09-2.39l3.58,0.28c-0.17.66-.38,1.71-0.5,2.23l-0.19.88c1.33-.19,2.65-0.45,3.93-0.76v2.94Zm-0.47,7.7a8.3,8.3,0,0,0-.33,2c0,1,.59,1.8,3.1,1.8a29.56,29.56,0,0,0,4.88-.47l-0.12,3a37.58,37.58,0,0,1-4.79.33c-4,0-6-1.37-6-3.74a15.63,15.63,0,0,1,.4-3.13Zm-1.38-5.88a44.13,44.13,0,0,1,4.5-.24,40.68,40.68,0,0,1,4.12.19l-0.07,2.84a33.65,33.65,0,0,0-4-.31,39.15,39.15,0,0,0-4.53.26v-2.75Zm6.16-2.42a26.42,26.42,0,0,0-1.85-3.29l1.87-.78a32.6,32.6,0,0,1,1.87,3.25Zm2.82-5.14a27.83,27.83,0,0,1,1.92,3.22l-1.87.81a25.16,25.16,0,0,0-1.92-3.27Z" transform="translate(-268.01 -212)"/><path class="cls-1" d="M515.69,221.83a24.13,24.13,0,0,0-.31,3.13c-0.12,2.51-.28,7.77-0.28,10.69,0,2.37,1.42,3.13,3.22,3.13,3.89,0,6.35-2.23,8-4.79l2.13,2.63A12.21,12.21,0,0,1,518.3,242c-3.84,0-6.33-1.68-6.33-5.69,0-3.15.24-9.31,0.24-11.33a14.72,14.72,0,0,0-.31-3.17Z" transform="translate(-268.01 -212)"/><path class="cls-1" d="M545,226.73a34.44,34.44,0,0,1-4.08.81,43.3,43.3,0,0,1-5,10L533,236.14a35.82,35.82,0,0,0,4.79-8.29c-0.4,0-.81,0-1.21,0-1,0-1.92,0-2.94-.07L533.46,225a29.77,29.77,0,0,0,3.13.17c0.69,0,1.4,0,2.11-.07a19.93,19.93,0,0,0,.64-3.93l3.25,0.33c-0.19.76-.47,1.94-0.81,3.2a24.81,24.81,0,0,0,3.15-.73Zm3.08,2.11c-0.07,1,0,2,0,3,0,0.66.07,1.8,0.14,3a15.62,15.62,0,0,1,4.86,3l-1.56,2.51a20.87,20.87,0,0,0-3.17-2.49v0.21c0,2.18-1.19,3.89-4.53,3.89-2.91,0-5.21-1.3-5.21-3.89,0-2.3,1.92-4.08,5.19-4.08,0.55,0,1.09,0,1.59.09-0.07-1.75-.19-3.81-0.26-5.24h3Zm-2.58,7.77a8.32,8.32,0,0,0-1.9-.24c-1.35,0-2.23.57-2.23,1.4s0.73,1.47,2,1.47a1.9,1.9,0,0,0,2.11-2.18v-0.45Zm6.61-6.52a31.33,31.33,0,0,0-5.64-3.34l1.52-2.32a42.26,42.26,0,0,1,5.78,3.17Z" transform="translate(-268.01 -212)"/><path class="cls-1" d="M578.47,237.39c-0.62-.55-1.3-1.11-2-1.64a11.75,11.75,0,0,1-5.95,6.35l-2.51-2a10.11,10.11,0,0,0,6-5.9,16.44,16.44,0,0,0-5.5-1.9,48.71,48.71,0,0,1-2.73,5.64,4,4,0,0,1-3.65,2.06,3.5,3.5,0,0,1-3.6-3.79c0-3.63,3.29-6.42,8-6.63,0.66-1.52,1.33-3.1,1.87-4.22-0.92,0-2.94.09-4,.17-0.5,0-1.33.12-1.92,0.21l-0.12-3a19,19,0,0,0,1.94.09c1.33,0,3.84-.09,4.93-0.19a5.83,5.83,0,0,0,1.59-.36l1.87,1.47a5.46,5.46,0,0,0-.78,1,45.26,45.26,0,0,0-2.3,5,20.52,20.52,0,0,1,5,1.52c0-.28,0-0.55.07-0.81a15.13,15.13,0,0,0,0-2.56l3.08,0.36a38.64,38.64,0,0,1-.45,4.36c1,0.55,1.82,1.11,2.51,1.56Zm-13.17-5.14c-2.61.4-4,2-4,3.46a1,1,0,0,0,.88,1.11,1.46,1.46,0,0,0,1.23-.81A30.4,30.4,0,0,0,565.29,232.25Z" transform="translate(-268.01 -212)"/><path class="cls-1" d="M470.19,215.86c-0.16-.14-0.33-0.28-0.51-0.42a3,3,0,0,1-1.51,1.62l-0.64-.52A2.58,2.58,0,0,0,469,215a4.2,4.2,0,0,0-1.4-.48,12.33,12.33,0,0,1-.69,1.44,1,1,0,0,1-.93.52,0.89,0.89,0,0,1-.92-1,1.88,1.88,0,0,1,2-1.69c0.17-.39.34-0.79,0.48-1.07l-1,0-0.49.05,0-.77a4.81,4.81,0,0,0,.49,0c0.34,0,1,0,1.25,0a1.49,1.49,0,0,0,.4-0.09l0.48,0.37a1.45,1.45,0,0,0-.2.25,11.5,11.5,0,0,0-.58,1.28,5.23,5.23,0,0,1,1.28.39l0-.21a3.86,3.86,0,0,0,0-.65l0.78,0.09a10,10,0,0,1-.12,1.11c0.25,0.14.46,0.28,0.64,0.4Zm-3.35-1.31a1,1,0,0,0-1,.88,0.25,0.25,0,0,0,.22.28,0.37,0.37,0,0,0,.31-0.21A7.77,7.77,0,0,0,466.83,214.55Z" transform="translate(-268.01 -212)"/></svg>