<svg id="txt" xmlns="http://www.w3.org/2000/svg" viewBox="0 0 214.35 33.23"><defs><style>.cls-1{fill:#fff;}</style></defs><title>hero-logo</title><path class="cls-1" d="M275.24,233l0,0H270.4l-14.5-15.14-2.48,2.48L265.54,233h-4.86l-9.74-10.17L240,233.81V229l28.4-28.4h4.82l-14.83,14.83Zm-16.5-32.43-7.62,7.62v-7.62h-3.71v11.33l-3.71,3.71v-15H240v23.58l23.58-23.58h-4.82Z" transform="translate(-239.99 -200.58)"/><path class="cls-1" d="M284.25,218.1h2.57l4.9,7,4.9-7h2.55V233h-2.46V221.87l-5,7-5-7V233h-2.44V218.1Z" transform="translate(-239.99 -200.58)"/><path class="cls-1" d="M303.48,218.1H314v2.25h-8v4h7.17v2.08H306v4.27h8.11V233H303.48V218.1Z" transform="translate(-239.99 -200.58)"/><path class="cls-1" d="M317.83,218.1h2.44l7.41,10.76V218.1h2.44V233h-2.44l-7.41-10.74V233h-2.44V218.1Z" transform="translate(-239.99 -200.58)"/><path class="cls-1" d="M333.66,218.1h2.8v2.16a3.37,3.37,0,0,1-2.4,3.65l-0.57-1a2.07,2.07,0,0,0,1.4-2h-1.23V218.1Z" transform="translate(-239.99 -200.58)"/><path class="cls-1" d="M340.75,229.6a8.61,8.61,0,0,0,4.48,1.36c2,0,2.93-.85,2.93-2,0-3.35-8.36-1.15-8.36-6.81,0-2.38,2-4.27,5.31-4.27a11.71,11.71,0,0,1,5.16,1.21l-1,2a9.36,9.36,0,0,0-4.12-1c-1.72,0-2.74.87-2.74,2,0,3.33,8.36,1.06,8.36,6.83,0,2.44-1.85,4.31-5.58,4.31a11.15,11.15,0,0,1-5.71-1.59Z" transform="translate(-239.99 -200.58)"/><path class="cls-1" d="M361.42,218.1H364v7.47l6.3-7.47h2.91l-4.82,5.62,5.33,9.23h-3l-4-7.3L364,228.84V233h-2.55V218.1Z" transform="translate(-239.99 -200.58)"/><path class="cls-1" d="M377.53,218.1h2.55V233h-2.55V218.1Z" transform="translate(-239.99 -200.58)"/><path class="cls-1" d="M384.6,218.1H391c4,0,5.41,2.29,5.41,4.58a4.31,4.31,0,0,1-2.87,4.14l3,6.13h-2.78l-2.55-5.73h-4.07V233H384.6V218.1Zm6.39,7.13c2,0,2.89-1.17,2.89-2.53s-0.87-2.48-2.87-2.48h-3.86v5H391Z" transform="translate(-239.99 -200.58)"/><path class="cls-1" d="M400,218.1h10.53v2.25h-8v4h7.18v2.08H402.5v4.27h8.11V233H400V218.1Z" transform="translate(-239.99 -200.58)"/><path class="cls-1" d="M414.75,218.1h2.55V233h-2.55V218.1Z" transform="translate(-239.99 -200.58)"/><path class="cls-1" d="M421.18,218.1h2.57l4.9,7,4.9-7h2.55V233h-2.46V221.87l-5,7-5-7V233h-2.44V218.1Z" transform="translate(-239.99 -200.58)"/><path class="cls-1" d="M446.75,217.84a7.27,7.27,0,0,1,7.58,7.6A7.59,7.59,0,1,1,446.75,217.84Zm0,13.16c2.8,0,5-2.08,5-5.56s-2.17-5.41-5-5.41-5,2.06-5,5.41S444,231,446.75,231Z" transform="translate(-239.99 -200.58)"/></svg>