<?xml version="1.0" encoding="utf-8"?>
<!-- Generator: Adobe Illustrator 15.1.0, SVG Export Plug-In  -->
<!DOCTYPE svg PUBLIC "-//W3C//DTD SVG 1.1//EN" "http://www.w3.org/Graphics/SVG/1.1/DTD/svg11.dtd" [
	<!ENTITY ns_flows "http://ns.adobe.com/Flows/1.0/">
]>
<svg version="1.1"
	 xmlns="http://www.w3.org/2000/svg" xmlns:xlink="http://www.w3.org/1999/xlink" xmlns:a="http://ns.adobe.com/AdobeSVGViewerExtensions/3.0/"
	 x="0px" y="0px" width="256px" height="51px" viewBox="0 0 256 51" enable-background="new 0 0 256 51" xml:space="preserve">
<defs>
</defs>
<path d="M53.807,49.231l-0.023,0.024h-7.296L24.596,26.394l-3.751,3.75l18.301,19.111h-7.344L17.094,33.896L0.557,50.432v-7.284
	L43.453,0.25h7.288L28.347,22.644L53.807,49.231z M28.88,0.25L17.376,11.754V0.25h-5.604v17.112l-5.608,5.604V0.25H0.557v35.61
	L36.168,0.25H28.88z"/>
<path d="M73.752,17.395H76.5l5.246,7.468l5.246-7.468h2.722v15.893h-2.633V21.436l-5.357,7.492l-5.358-7.492v11.852h-2.613V17.395z"
	/>
<path d="M94.319,17.395h11.263v2.407h-8.561v4.29h7.674v2.226h-7.674v4.563h8.672v2.407H94.319V17.395z"/>
<path d="M109.665,17.395h2.611l7.925,11.511V17.395h2.611v15.893h-2.611L112.276,21.8v11.488h-2.611V17.395z"/>
<path d="M126.6,17.395h2.996v2.316c0,2.202-0.816,3.201-2.565,3.903l-0.613-1.089c0.978-0.432,1.499-1.134,1.499-2.112H126.6V17.395
	z"/>
<path d="M134.182,29.7c1.408,0.864,3.043,1.454,4.792,1.454c2.086,0,3.133-0.908,3.133-2.18c0-3.587-8.945-1.226-8.945-7.288
	c0-2.543,2.11-4.564,5.676-4.564c2.087,0,3.928,0.522,5.518,1.294l-1.022,2.179c-1.34-0.658-2.838-1.066-4.405-1.066
	c-1.839,0-2.93,0.931-2.93,2.111c0,3.566,8.946,1.136,8.946,7.312c0,2.611-1.975,4.608-5.97,4.608c-2.34,0-4.588-0.748-6.108-1.703
	L134.182,29.7z"/>
<path d="M156.292,17.395h2.726v7.992l6.742-7.992h3.112l-5.156,6.016l5.699,9.877h-3.157l-4.313-7.81l-2.928,3.407v4.403h-2.726
	V17.395z"/>
<path d="M173.523,17.395h2.724v15.893h-2.724V17.395z"/>
<path d="M181.083,17.395h6.879c4.268,0,5.789,2.451,5.789,4.904c0,1.906-1.021,3.631-3.065,4.426l3.178,6.562h-2.973l-2.725-6.131
	h-0.068h-4.29v6.131h-2.724V17.395z M187.915,25.023c2.158,0,3.089-1.249,3.089-2.703c0-1.476-0.931-2.655-3.065-2.655h-4.131v5.358
	H187.915z"/>
<path d="M197.54,17.395h11.261v2.407h-8.562v4.29h7.675v2.226h-7.675v4.563h8.674v2.407H197.54V17.395z"/>
<path d="M213.339,17.395h2.724v15.893h-2.724V17.395z"/>
<path d="M220.217,17.395h2.746l5.247,7.468l5.245-7.468h2.724v15.893h-2.633V21.436l-5.359,7.492l-5.358-7.492v11.852h-2.611V17.395
	z"/>
<path d="M247.572,17.122c4.61,0,8.107,3.202,8.107,8.128c0,5.041-3.497,8.31-8.107,8.31c-4.607,0-8.126-3.269-8.126-8.31
	C239.446,20.323,242.964,17.122,247.572,17.122z M247.572,31.199c2.998,0,5.336-2.225,5.336-5.949c0-3.587-2.316-5.789-5.336-5.789
	c-3.02,0-5.335,2.202-5.335,5.789C242.236,28.974,244.577,31.199,247.572,31.199z"/>
<rect id="_x3C_スライス_x3E__2_" fill="none" width="256" height="51"/>
</svg>
