<?xml version="1.0" encoding="utf-8"?>
<!-- Generator: Adobe Illustrator 15.1.0, SVG Export Plug-In  -->
<!DOCTYPE svg PUBLIC "-//W3C//DTD SVG 1.1//EN" "http://www.w3.org/Graphics/SVG/1.1/DTD/svg11.dtd" [
	<!ENTITY ns_flows "http://ns.adobe.com/Flows/1.0/">
]>
<svg version="1.1"
	 xmlns="http://www.w3.org/2000/svg" xmlns:xlink="http://www.w3.org/1999/xlink" xmlns:a="http://ns.adobe.com/AdobeSVGViewerExtensions/3.0/"
	 x="0px" y="0px" width="238px" height="105px" viewBox="0 0 238 105" enable-background="new 0 0 238 105" xml:space="preserve">
<defs>
</defs>
<path fill="#FFFFFF" d="M154.256,64.296l-0.031,0.03h-9.475l-28.43-29.688l-4.872,4.87l23.767,24.818h-9.537L106.578,44.38
	L85.102,65.854v-9.459L140.81,0.685h9.464l-29.082,29.083L154.256,64.296z M121.884,0.685l-14.939,14.94V0.685h-7.279v22.223
	l-7.282,7.279V0.685h-7.282v46.246l46.247-46.246H121.884z"/>
<path fill="#FFFFFF" d="M0.943,83.252h3.568l6.813,9.699l6.812-9.699h3.536v20.639h-3.419V88.499l-6.957,9.729l-6.958-9.729v15.392
	H0.943V83.252z"/>
<path fill="#FFFFFF" d="M27.652,83.252h14.626v3.126H31.163v5.571h9.965v2.891h-9.965v5.926h11.261v3.126H27.652V83.252z"/>
<path fill="#FFFFFF" d="M47.581,83.252h3.391l10.292,14.949V83.252h3.391v20.639h-3.391L50.972,88.972v14.919h-3.391V83.252z"/>
<path fill="#FFFFFF" d="M69.573,83.252h3.892v3.008c0,2.858-1.06,4.156-3.332,5.069l-0.795-1.414
	c1.27-0.562,1.946-1.474,1.946-2.744h-1.711V83.252z"/>
<path fill="#FFFFFF" d="M79.419,99.232c1.83,1.122,3.952,1.887,6.224,1.887c2.709,0,4.067-1.179,4.067-2.831
	c0-4.659-11.616-1.592-11.616-9.465c0-3.302,2.74-5.927,7.371-5.927c2.711,0,5.101,0.679,7.166,1.681l-1.327,2.831
	c-1.741-0.854-3.686-1.385-5.721-1.385c-2.389,0-3.805,1.209-3.805,2.742c0,4.631,11.619,1.475,11.619,9.495
	c0,3.391-2.564,5.984-7.753,5.984c-3.039,0-5.959-0.971-7.933-2.211L79.419,99.232z"/>
<path fill="#FFFFFF" d="M108.133,83.252h3.54V93.63l8.756-10.378h4.042l-6.695,7.813l7.401,12.827h-4.1l-5.601-10.143l-3.803,4.424
	v5.719h-3.54V83.252z"/>
<path fill="#FFFFFF" d="M130.511,83.252h3.537v20.639h-3.537V83.252z"/>
<path fill="#FFFFFF" d="M140.328,83.252h8.933c5.542,0,7.519,3.184,7.519,6.369c0,2.476-1.326,4.716-3.98,5.748l4.126,8.522h-3.862
	l-3.539-7.962h-0.089h-5.571v7.962h-3.538V83.252z M149.201,93.159c2.802,0,4.011-1.623,4.011-3.51c0-1.917-1.209-3.448-3.98-3.448
	h-5.365v6.958H149.201z"/>
<path fill="#FFFFFF" d="M161.701,83.252h14.625v3.126h-11.119v5.571h9.968v2.891h-9.968v5.926h11.266v3.126h-14.771V83.252z"/>
<path fill="#FFFFFF" d="M182.219,83.252h3.537v20.639h-3.537V83.252z"/>
<path fill="#FFFFFF" d="M191.15,83.252h3.566l6.814,9.699l6.811-9.699h3.537v20.639h-3.419V88.499l-6.96,9.729l-6.958-9.729v15.392
	h-3.391V83.252z"/>
<path fill="#FFFFFF" d="M226.675,82.897c5.987,0,10.528,4.158,10.528,10.556c0,6.546-4.541,10.791-10.528,10.791
	c-5.983,0-10.553-4.245-10.553-10.791C216.122,87.055,220.692,82.897,226.675,82.897z M226.675,101.179
	c3.893,0,6.93-2.89,6.93-7.726c0-4.659-3.009-7.519-6.93-7.519s-6.929,2.86-6.929,7.519
	C219.746,98.289,222.785,101.179,226.675,101.179z"/>
<rect id="_x3C_スライス_x3E__2_" fill="none" width="238" height="105"/>
</svg>
