<?xml version="1.0" encoding="utf-8"?>
<!-- Generator: Adobe Illustrator 15.1.0, SVG Export Plug-In  -->
<!DOCTYPE svg PUBLIC "-//W3C//DTD SVG 1.1//EN" "http://www.w3.org/Graphics/SVG/1.1/DTD/svg11.dtd" [
	<!ENTITY ns_flows "http://ns.adobe.com/Flows/1.0/">
]>
<svg version="1.1"
	 xmlns="http://www.w3.org/2000/svg" xmlns:xlink="http://www.w3.org/1999/xlink" xmlns:a="http://ns.adobe.com/AdobeSVGViewerExtensions/3.0/"
	 x="0px" y="0px" width="257px" height="52px" viewBox="0 0 257 52" enable-background="new 0 0 257 52" xml:space="preserve">
<defs>
</defs>
<polygon fill-rule="evenodd" clip-rule="evenodd" fill="#180A09" points="75.43,18.213 78.168,18.213 83.392,25.662 88.617,18.213 
	91.324,18.213 91.324,34.058 88.707,34.058 88.707,22.24 83.372,29.709 78.037,22.24 78.037,34.058 75.43,34.058 "/>
<polygon fill-rule="evenodd" clip-rule="evenodd" fill="#180A09" points="95.915,18.213 107.128,18.213 107.128,20.609 
	98.602,20.609 98.602,24.887 106.252,24.887 106.252,27.112 98.602,27.112 98.602,31.662 107.239,31.662 107.239,34.058 
	95.915,34.058 "/>
<polygon fill-rule="evenodd" clip-rule="evenodd" fill="#180A09" points="111.195,18.213 113.802,18.213 121.694,29.689 
	121.694,18.213 124.292,18.213 124.292,34.058 121.694,34.058 113.802,22.602 113.802,34.058 111.195,34.058 "/>
<path fill-rule="evenodd" clip-rule="evenodd" fill="#180A09" d="M128.066,18.213h2.98v2.305c0,2.195-0.815,3.191-2.557,3.896
	l-0.604-1.087c0.977-0.433,1.49-1.127,1.49-2.104h-1.309V18.213z"/>
<path fill-rule="evenodd" clip-rule="evenodd" fill="#180A09" d="M135.616,30.484c1.399,0.856,3.03,1.45,4.771,1.45
	c2.084,0,3.121-0.906,3.121-2.174c0-3.574-8.909-1.229-8.909-7.268c0-2.537,2.104-4.55,5.658-4.55c2.074,0,3.905,0.523,5.486,1.289
	l-1.017,2.174c-1.329-0.654-2.818-1.067-4.389-1.067c-1.832,0-2.909,0.936-2.909,2.104c0,3.563,8.909,1.137,8.909,7.298
	c0,2.597-1.973,4.59-5.95,4.59c-2.325,0-4.569-0.745-6.079-1.701L135.616,30.484z"/>
<polygon fill-rule="evenodd" clip-rule="evenodd" fill="#180A09" points="157.641,18.213 160.349,18.213 160.349,26.186 
	167.063,18.213 170.163,18.213 165.029,24.213 170.707,34.058 167.566,34.058 163.268,26.276 160.349,29.668 160.349,34.058 
	157.641,34.058 "/>
<rect x="174.793" y="18.213" fill-rule="evenodd" clip-rule="evenodd" fill="#180A09" width="2.718" height="15.844"/>
<path fill-rule="evenodd" clip-rule="evenodd" fill="#180A09" d="M189.128,25.824c2.154,0,3.08-1.249,3.08-2.698
	c0-1.47-0.926-2.647-3.05-2.647h-4.117v5.345H189.128z M182.323,18.213h6.855c4.248,0,5.768,2.446,5.768,4.892
	c0,1.903-1.017,3.614-3.05,4.409l3.16,6.543h-2.959l-2.717-6.11h-0.071h-4.268v6.11h-2.718V18.213z"/>
<polygon fill-rule="evenodd" clip-rule="evenodd" fill="#180A09" points="198.721,18.213 209.935,18.213 209.935,20.609 
	201.409,20.609 201.409,24.887 209.049,24.887 209.049,27.112 201.409,27.112 201.409,31.662 210.045,31.662 210.045,34.058 
	198.721,34.058 "/>
<rect x="214.455" y="18.213" fill-rule="evenodd" clip-rule="evenodd" fill="#180A09" width="2.708" height="15.844"/>
<polygon fill-rule="evenodd" clip-rule="evenodd" fill="#180A09" points="221.3,18.213 224.038,18.213 229.262,25.662 
	234.486,18.213 237.204,18.213 237.204,34.058 234.577,34.058 234.577,22.24 229.242,29.709 223.907,22.24 223.907,34.058 
	221.3,34.058 "/>
<path fill-rule="evenodd" clip-rule="evenodd" fill="#180A09" d="M248.549,31.974c2.979,0,5.315-2.214,5.315-5.929
	c0-3.574-2.305-5.768-5.315-5.768c-3.009,0-5.314,2.194-5.314,5.768C243.234,29.76,245.569,31.974,248.549,31.974z M248.549,17.941
	c4.59,0,8.073,3.191,8.073,8.104c0,5.023-3.483,8.284-8.073,8.284s-8.093-3.261-8.093-8.284
	C240.456,21.132,243.958,17.941,248.549,17.941z"/>
<path fill-rule="evenodd" clip-rule="evenodd" fill="#180A09" d="M29.276,1L17.791,12.506V1h-5.597v17.103l-5.597,5.607V1H1v35.594
	L36.554,1H29.276z M54.17,49.962l-0.03,0.02h-7.278L24.998,27.132l-3.744,3.755l18.28,19.096h-7.338L17.508,34.631L1,51.16v-7.278
	L43.832,1h7.278L28.743,23.388L54.17,49.962z"/>
<path d="M80.709,41.014c-0.01,0.101-0.101,0.151-0.251,0.182l-0.03,0.372c0.111,1.519,0.734,5.875,4.477,7.586
	c-0.302,0.221-0.573,0.543-0.724,0.815c-2.485-1.197-3.642-3.542-4.185-5.524c-0.483,1.912-1.55,4.135-3.944,5.514
	c-0.171-0.241-0.473-0.523-0.794-0.745c4.125-2.173,4.064-6.952,4.134-8.3L80.709,41.014z"/>
<path d="M91.883,48.811h4.075v0.926h-9.115v-0.926h4.055v-2.344h-2.918v-0.926h2.918v-2.042h-2.294
	c-0.332,0.674-0.705,1.288-1.107,1.761c-0.191-0.171-0.573-0.442-0.815-0.583c0.794-0.875,1.479-2.415,1.872-3.914l1.187,0.332
	c-0.03,0.081-0.111,0.121-0.251,0.121c-0.131,0.453-0.292,0.915-0.473,1.358h1.882v-1.952l1.227,0.081
	c-0.01,0.081-0.081,0.141-0.241,0.171v1.7h3.602v0.926h-3.602v2.042h3.199v0.926h-3.199V48.811z"/>
<path d="M106.567,45.189c-0.021,0.01-0.041,0.01-0.061,0.01c-0.061,0-0.121-0.021-0.171-0.05c-0.755,0.231-1.801,0.594-2.596,0.916
	c0.02,0.221,0.03,0.473,0.03,0.755c0,0.271-0.01,0.573-0.03,0.905l-1.016,0.07c0.04-0.433,0.061-0.996,0.04-1.338
	c-0.945,0.473-1.69,1.056-1.69,1.549c0,0.503,0.624,0.745,1.881,0.745c0.926,0,1.871-0.041,2.515-0.121l0.01,0.936
	c-0.564,0.06-1.439,0.08-2.536,0.08c-1.932,0-2.847-0.442-2.847-1.59c0-0.845,1.106-1.73,2.565-2.475
	c-0.05-0.453-0.251-0.745-0.604-0.745c-0.705,0-1.438,0.382-2.294,1.348c-0.261,0.292-0.644,0.684-1.086,1.097l-0.694-0.684
	c0.473-0.422,1.006-0.896,1.328-1.308c0.443-0.564,0.905-1.449,1.107-2.173l-0.463,0.01c-0.403,0-1.117,0-1.62-0.01v-0.906
	c0.593,0.021,1.308,0.031,1.73,0.031l0.614-0.01c0.091-0.433,0.171-0.855,0.242-1.389l1.268,0.141
	c-0.021,0.101-0.111,0.161-0.242,0.181c-0.07,0.362-0.151,0.695-0.241,1.026c0.744-0.02,2.072-0.181,3.25-0.574l0.171,0.956
	c-1.106,0.342-2.565,0.473-3.682,0.513c-0.202,0.644-0.413,1.157-0.604,1.428h0.01c0.402-0.332,0.986-0.563,1.499-0.563
	c0.624,0,1.097,0.443,1.237,1.238c0.815-0.362,1.811-0.734,2.585-1.036L106.567,45.189z"/>
<path d="M113.967,46.346c-0.604,0.07-1.458,0.121-2.243,0.121c-0.05,0.513-0.05,0.573-0.05,0.745c0,1.318,0.784,1.56,1.82,1.56
	c0.423,0,0.875-0.061,1.268-0.171c0.573-0.151,0.865-0.553,0.865-1.086c0-0.503-0.252-1.117-0.765-1.75
	c0.261-0.081,0.684-0.231,0.916-0.332c0.604,0.825,0.905,1.6,0.905,2.253c0,2.022-2.625,2.022-3.209,2.022
	c-1.489,0-2.777-0.382-2.777-2.535c0-0.231,0.021-0.482,0.041-0.745c-0.734-0.03-2.153-0.1-2.153-1.227
	c0.01-0.422,0.261-0.895,0.845-1.338l0.754,0.372c-0.402,0.251-0.653,0.563-0.653,0.815c0,0.453,0.664,0.473,1.277,0.493
	c0.061-0.613,0.131-1.317,0.222-2.032c-0.684-0.061-1.489-0.242-2.033-0.503l0.221-0.925c0.534,0.251,1.208,0.432,1.912,0.513
	c0.071-0.594,0.151-1.208,0.202-1.721l1.388,0.161c-0.021,0.121-0.151,0.201-0.342,0.222c-0.07,0.392-0.151,0.905-0.231,1.418
	c0.271,0.02,0.583,0.03,0.895,0.03c0.353,0,0.715-0.01,1.026-0.04l-0.041,0.925c-0.292,0.02-0.644,0.03-0.996,0.03
	c-0.353,0-0.705-0.01-1.016-0.03c-0.081,0.674-0.161,1.358-0.222,1.982c0.734-0.01,1.529-0.061,2.163-0.151L113.967,46.346z"/>
<path d="M118.47,44.565c0.211-0.04,0.554-0.131,0.956-0.241c1.379-0.413,2.767-0.684,3.602-0.684c1.378,0,2.636,0.724,2.636,2.394
	c0,2.253-2.133,3.068-4.95,3.29c-0.05-0.222-0.191-0.694-0.281-0.875c2.404-0.161,4.236-0.805,4.236-2.344
	c0-1.127-0.795-1.61-1.761-1.61c-0.704,0-1.861,0.231-3.27,0.715c-0.211,0.081-0.462,0.171-0.634,0.231
	c-0.03,0.09-0.111,0.161-0.201,0.181L118.47,44.565z"/>
<path d="M135.005,44.435c-0.03,0.01-0.061,0.01-0.09,0.01c-0.081,0-0.161-0.02-0.231-0.06c-3.008,0.845-5.483,2.032-5.473,3.25
	c0.01,0.855,0.936,1.167,2.465,1.167c1.529,0,2.827-0.141,3.532-0.251l0.09,1.017c-0.725,0.1-2.032,0.191-3.662,0.191
	c-1.952,0-3.441-0.473-3.461-2.063c-0.01-1.077,1.006-1.992,2.545-2.807c-0.362-0.674-0.483-1.821-0.463-4.034l1.459,0.121
	c-0.021,0.131-0.111,0.222-0.322,0.242c-0.02,1.589,0.021,2.635,0.272,3.209c0.895-0.402,1.921-0.784,2.988-1.146L135.005,44.435z"
	/>
<path d="M146.591,47.261h-3.26c0.875,0.785,2.214,1.459,3.481,1.801c-0.211,0.191-0.503,0.563-0.644,0.805
	c-1.308-0.443-2.687-1.258-3.642-2.213v2.404h-0.966v-2.435c-0.945,0.997-2.314,1.852-3.602,2.314
	c-0.141-0.242-0.433-0.604-0.634-0.795c1.228-0.372,2.545-1.077,3.42-1.882h-3.189v-0.835h4.004v-0.805h-1.418v-3.974h1.228
	c0.101-0.333,0.211-0.725,0.261-1.026l1.157,0.241c-0.02,0.071-0.101,0.111-0.231,0.111c-0.07,0.201-0.161,0.443-0.251,0.674h1.7
	v2.535l0.473-0.533c0.764,0.382,1.811,0.996,2.324,1.438l-0.593,0.714c-0.463-0.422-1.419-1.046-2.204-1.469v1.288h-2.103v0.01
	l0.865,0.04c-0.01,0.081-0.081,0.141-0.242,0.161v0.593h4.064V47.261z M137.375,45.048c0.604-0.302,1.499-0.795,2.384-1.278
	l0.251,0.775c-0.714,0.442-1.479,0.896-1.982,1.187c0.01,0.081-0.03,0.151-0.101,0.202L137.375,45.048z M138.281,41.256
	c0.614,0.432,1.308,1.086,1.61,1.569l-0.705,0.613c-0.292-0.483-0.966-1.167-1.569-1.64L138.281,41.256z M141.027,42.393v0.885
	h2.053v-0.885H141.027z M141.027,43.982v0.895h2.053v-0.895H141.027z M146.581,41.749c-0.041,0.06-0.141,0.08-0.251,0.06
	c-0.403,0.463-1.077,1.097-1.57,1.509c0-0.01-0.704-0.503-0.704-0.503c0.513-0.422,1.197-1.137,1.589-1.68L146.581,41.749z"/>
<path d="M151.053,41.094c-0.02,0.121-0.11,0.201-0.312,0.221c-0.08,1.268-0.181,3.763-0.181,5.242c0,1.398,0.694,2.052,1.861,2.052
	c1.106,0,2.283-0.554,3.43-1.781c0.121,0.222,0.443,0.714,0.594,0.875c-1.217,1.298-2.585,1.942-4.034,1.942
	c-2.042,0-2.938-1.147-2.938-3.088c0-1.308,0.081-4.326,0.161-5.554L151.053,41.094z"/>
<path d="M162.186,41.064c-0.01,0.11-0.11,0.171-0.292,0.211c-0.01,0.342-0.03,0.704-0.06,1.077c0.754-0.081,1.458-0.211,2.042-0.393
	l0.131,0.936c-0.553,0.161-1.358,0.292-2.243,0.352c-0.061,0.785-0.131,1.5-0.182,1.972c0.02,0.11,0.031,0.242,0.031,0.373
	c0,0.543-0.162,1.207-0.433,1.579c-0.182,0.333-0.262,0.614-0.262,0.825c0,0.685,0.735,0.775,1.64,0.775
	c0.694,0,1.388-0.031,2.052-0.231c0.423-0.121,0.684-0.443,0.684-0.926s-0.251-1.107-0.835-1.861
	c0.251-0.09,0.594-0.221,0.855-0.362c0.695,0.885,1.037,1.72,1.037,2.405c0,0.785-0.453,1.368-1.338,1.609
	c-0.704,0.202-1.791,0.252-2.324,0.252c-0.835,0-2.737,0-2.737-1.288c0-0.211,0.061-0.443,0.171-0.694
	c-0.131,0.04-0.271,0.06-0.402,0.06c-0.654,0-1.258-0.493-1.258-1.519c0-1.298,0.855-1.922,1.63-1.922
	c0.221,0,0.443,0.081,0.594,0.211c0.02-0.332,0.06-0.765,0.08-1.197h-0.553c-0.413,0-0.956,0.01-1.459,0.01v-0.886
	c0.422,0,0.986,0.011,1.469,0.011c0.201,0,0.402-0.011,0.594-0.021c0.03-0.533,0.05-1.046,0.05-1.469L162.186,41.064z
	 M160.708,45.783c0-0.413-0.181-0.755-0.553-0.755c-0.554,0-0.926,0.433-0.926,1.117c0,0.493,0.242,0.805,0.644,0.805
	C160.637,46.95,160.708,45.944,160.708,45.783z M167.046,44.596c-0.734-0.372-1.821-0.644-2.737-0.755l0.202-0.865
	c0.986,0.09,2.092,0.332,2.817,0.694L167.046,44.596z"/>
<path d="M177.313,46.215l0.564,0.111c-0.01,0.081-0.031,0.181-0.051,0.271c-0.322,3.32-0.613,3.461-2.083,3.461
	c-0.332,0-0.725-0.01-1.137-0.03c-0.03-0.262-0.151-0.634-0.312-0.875c0.644,0.06,1.308,0.07,1.559,0.07
	c0.211,0,0.342-0.02,0.453-0.101c0.201-0.181,0.373-0.765,0.503-2.033h-2.988c-0.483,1.328-1.479,2.395-4.085,2.978
	c-0.09-0.251-0.322-0.644-0.513-0.845c2.123-0.423,3.079-1.157,3.552-2.133h-3.209v-0.854h3.501c0.07-0.282,0.11-0.574,0.151-0.875
	h-2.847v-4.206h7.112v4.206h-3.028c-0.041,0.07-0.111,0.11-0.242,0.131c-0.04,0.251-0.09,0.502-0.141,0.745h3.028L177.313,46.215z
	 M171.327,41.959v0.916h2.073v-0.916H171.327z M171.327,43.63v0.936h2.073V43.63H171.327z M176.499,42.875v-0.916h-2.133v0.916
	H176.499z M176.499,44.565V43.63h-2.133v0.936H176.499z"/>
<path d="M182.652,44.616v3.28c0.684,1.106,2.022,1.106,3.803,1.106c1.157,0,2.546-0.03,3.431-0.1
	c-0.111,0.221-0.252,0.664-0.302,0.935c-0.755,0.031-1.902,0.051-2.938,0.051c-2.193,0-3.461,0-4.396-1.197
	c-0.433,0.422-0.875,0.835-1.248,1.157c0,0.101-0.03,0.141-0.111,0.191l-0.493-1.017c0.402-0.282,0.905-0.674,1.338-1.056v-2.465
	h-1.237v-0.885H182.652z M181.304,40.894c0.604,0.453,1.318,1.137,1.63,1.64l-0.775,0.594c-0.291-0.503-0.976-1.208-1.579-1.7
	L181.304,40.894z M183.275,44.475h1.469c-0.071-0.282-0.222-0.644-0.393-0.926c0.141-0.04,0.262-0.06,0.373-0.09h-1.65v-0.704h2.817
	v-0.614h-2.143v-0.694h2.143v-0.815l1.177,0.061c-0.01,0.091-0.081,0.141-0.242,0.171v0.583h2.223v0.694h-2.223v0.614h2.897v0.704
	h-1.519l0.382,0.121c-0.04,0.07-0.11,0.101-0.242,0.101c-0.121,0.221-0.292,0.533-0.453,0.795h1.71v0.684h-2.777v0.554h2.374v0.664
	h-2.374v0.614h2.807v0.694h-2.807v0.885h-0.936v-0.885h-2.697V46.99h2.697v-0.614h-2.224v-0.664h2.224v-0.554h-2.616V44.475z
	 M187.199,44.475l-0.151-0.061c0.141-0.272,0.302-0.644,0.413-0.956h-2.223c0.191,0.312,0.362,0.695,0.413,0.956l-0.232,0.061
	H187.199z"/>
<path d="M197.106,42.754c-0.031,0.091-0.131,0.161-0.272,0.161c-0.392,3.3-1.418,5.644-3.109,5.644c-0.976,0-1.76-0.896-1.76-2.545
	c0-2.495,1.961-4.447,4.567-4.447c2.887,0,4.246,1.76,4.246,3.833c0,2.385-1.298,3.572-3.783,4.186
	c-0.151-0.231-0.382-0.584-0.633-0.855c2.304-0.453,3.35-1.56,3.35-3.3c0-1.64-1.087-2.928-3.189-2.928
	c-0.141,0-0.271,0.01-0.413,0.021L197.106,42.754z M195.818,42.583c-1.771,0.313-2.877,1.801-2.877,3.401
	c0,0.956,0.352,1.58,0.814,1.58C194.842,47.563,195.607,45.139,195.818,42.583z"/>
<path d="M206.317,48.972c0,0.181-0.01,0.332-0.05,0.463c1.086-0.533,1.549-1.661,1.629-3.209l1.147,0.121
	c-0.021,0.08-0.081,0.131-0.211,0.151c-0.151,1.66-0.725,2.918-1.892,3.571c-0.151-0.181-0.473-0.482-0.674-0.633
	c-0.05,0.191-0.151,0.332-0.312,0.422c-0.271,0.151-0.674,0.182-1.318,0.182c-0.02-0.241-0.131-0.664-0.251-0.905
	c0.201,0.01,0.392,0.01,0.553,0.01h0.332c0.131-0.01,0.171-0.05,0.171-0.171v-2.324h-1.167c-0.091,1.207-0.292,2.475-0.715,3.431
	c-0.171-0.141-0.543-0.352-0.754-0.433c0.644-1.429,0.684-3.471,0.684-4.97v-3.683h2.827V48.972z M205.442,45.763v-1.539h-1.106
	v0.453c0,0.332,0,0.704-0.02,1.086H205.442z M204.335,41.869v1.479h1.106v-1.479H204.335z M211.338,49.012
	c0.201,0,0.241-0.161,0.261-1.318c0.181,0.151,0.574,0.302,0.825,0.362c-0.08,1.449-0.312,1.821-0.986,1.821h-0.815
	c-0.805,0-0.985-0.292-0.985-1.187v-2.596h-2.626v-3.471h0.916c-0.171-0.493-0.503-1.126-0.825-1.62l0.845-0.342
	c0.392,0.553,0.785,1.288,0.946,1.791l-0.393,0.171h1.67c-0.111-0.05-0.221-0.09-0.322-0.131c0.312-0.503,0.694-1.297,0.896-1.881
	l1.147,0.382c-0.04,0.071-0.131,0.111-0.251,0.101c-0.231,0.463-0.574,1.077-0.885,1.529h1.097v3.471h-1.298v2.596
	c0,0.292,0.031,0.322,0.222,0.322H211.338z M207.907,45.229h3.008v-1.751h-3.008V45.229z"/>
<path d="M218.789,48.398c0,0.553,0.111,0.664,0.815,0.664h2.324c0.604,0,0.704-0.251,0.785-1.398
	c0.231,0.171,0.654,0.332,0.936,0.392c-0.151,1.469-0.463,1.932-1.661,1.932h-2.445c-1.358,0-1.74-0.332-1.74-1.599v-1.208
	l-3.27,0.422l-0.131-0.915l3.4-0.433v-1.358l-2.938,0.412l-0.131-0.915l3.069-0.413v-1.338c-0.996,0.202-2.012,0.373-2.998,0.513
	c-0.04-0.241-0.181-0.624-0.292-0.835c2.546-0.372,5.373-0.966,6.982-1.68l0.845,0.815c-0.03,0.03-0.09,0.05-0.161,0.05
	c-0.03,0-0.061,0-0.101-0.01c-0.885,0.342-2.042,0.664-3.29,0.946l0.242,0.01c-0.01,0.091-0.071,0.141-0.242,0.171v1.217
	l3.793-0.513l0.131,0.885l-3.924,0.544v1.368l4.457-0.563l0.131,0.896l-4.588,0.594V48.398z"/>
<path d="M234.419,44.123h-1.982v0.554c0,2.022-0.654,3.913-3.189,5.09c-0.181-0.211-0.482-0.513-0.734-0.704
	c2.435-1.066,2.918-2.727,2.918-4.366v-0.574h-2.918v2.384h-0.996v-2.384h-1.852v-0.966h1.852v-2.083l1.277,0.081
	c-0.01,0.101-0.1,0.201-0.282,0.231v1.771h2.918v-2.213l1.278,0.07c-0.01,0.101-0.091,0.182-0.272,0.211v1.932h1.982V44.123z"/>
<path d="M244.305,42.281v6.721h-1.016v-0.604h-5.081v0.624h-0.996v-6.741H244.305z M243.279,47.463v-4.246h-5.081v4.246H243.279z"/>
<path d="M247.59,41.668c1.026,0.312,2.233,0.845,2.968,1.338l-0.523,0.905c-0.724-0.502-1.921-1.036-2.917-1.388L247.59,41.668z
	 M247.399,48.549c3.47-1.066,5.825-3.058,7.012-5.835c0.292,0.231,0.634,0.422,0.926,0.583c-1.248,2.747-3.682,4.899-7.052,6.057
	c-0.01,0.101-0.081,0.201-0.162,0.241L247.399,48.549z"/>
<rect id="_x3C_スライス_x3E__1_" fill="none" width="257" height="52"/>
</svg>
