<?xml version="1.0" encoding="utf-8"?>
<!-- Generator: Adobe Illustrator 15.1.0, SVG Export Plug-In  -->
<!DOCTYPE svg PUBLIC "-//W3C//DTD SVG 1.1//EN" "http://www.w3.org/Graphics/SVG/1.1/DTD/svg11.dtd" [
	<!ENTITY ns_flows "http://ns.adobe.com/Flows/1.0/">
]>
<svg version="1.1"
	 xmlns="http://www.w3.org/2000/svg" xmlns:xlink="http://www.w3.org/1999/xlink" xmlns:a="http://ns.adobe.com/AdobeSVGViewerExtensions/3.0/"
	 x="0px" y="0px" width="1343px" height="143px" viewBox="501 181 1343 143" enable-background="new 501 181 1343 143"
	 xml:space="preserve">
<defs>
</defs>
<rect display="none" width="2408.504" height="1408.504"/>
<path fill="#FFFFFF" d="M570.643,313.907c-8,1.3-19.601,2-30.001,2c-8.701,0-16.601-0.5-20.801-1.4
	c-12.901-2.9-18.401-11.4-18.401-20.501c0-7.801,4-15.401,9.401-21.001l10.8,4.8c-4.6,4.5-7.3,9.5-7.3,14.001
	c0,11.9,14.401,11.9,24.501,11.9c9.901,0,21.701-0.9,30.802-2.7L570.643,313.907z M521.74,261.904c3.4-2.7,8.801-6.601,12.801-8.801
	v-0.1c-5.1,0.8-19.301,1.1-27.702,0.9c0-3-0.1-9.4-0.3-12.201c1.8,0.1,4.2,0.1,6.9,0.1c10.101,0,24.701-0.4,31.702-0.8
	c6-0.3,13.301-1.1,19.301-2.3l1,13.001c-14.301,2.5-26.702,10.801-32.702,15.701L521.74,261.904z"/>
<path fill="#FFFFFF" d="M599.938,250.204c7.101,0,14.501-0.6,17.901-1.1c0.1-1.6,0.6-17.401,0.6-17.801l16.301,1.1
	c-0.2,1-1,1.8-2.8,2.1c-0.5,4.2-1,9-1.3,12.701l4.3,1.8c-2,3.3-4.2,8.601-5.601,12.601c10.501-9.7,20.602-14.401,27.802-14.401
	c10.101,0,15.901,6.901,15.901,19.201c0,1.2-0.1,2.4-0.2,3.601c-1.3,14.901-1.6,18.601-1.6,25.901c0,5.101,0.5,7.601,3.7,7.601
	c2.6,0,8.601-3.4,12.401-6.701c0,3.3,0.8,11.401,1.2,14.001c-5.1,3.4-11.101,6-15.901,6c-10.801,0-14.401-6-14.401-18.701
	c0-1.3,0.1-9.801,1.5-25.901c0.1-1.1,0.2-2.2,0.2-3.101c0-6.1-2.2-8.9-5.9-8.9c-5.9,0-15.701,5.8-25.001,16.001
	c0,19.501,0,38.502,0.1,43.703H616.74l0.1-32.802c-3.1,5.3-9.401,12.9-15.601,18.501l-5.8-11.901c7-5.7,17.501-17.201,21.601-26.102
	c0.1-2.2,0.1-4.4,0.2-6.8c-4.2,0.8-10.801,1.5-17.101,1.7L599.938,250.204z"/>
<path fill="#FFFFFF" d="M741.741,234.002c-0.2,1.4-1.5,1.9-3.3,2.1c-0.9,4.9-2.4,13.501-3.5,19.301c2.6-0.3,6.201-0.6,8.201-0.6
	c16.501-0.1,21.601,11.501,21.601,27.102v0.1c-0.4,22.102-6.6,37.802-21.901,37.802c-4,0-10-1.9-18.001-8.2
	c1.6-3.1,3.2-7.201,4.2-10.801c6.8,4.8,10.701,6,13.401,6c4.2,0,6.2-3.4,7.801-9.101c1.3-4.4,2.1-12.701,2.1-16.401
	c-0.1-9.9-3.101-14.901-10.201-14.901c-2.4,0-5.8,0.2-9.601,0.7c-4.5,18.301-10.001,36.102-18.501,52.203l-11.601-5.7
	c8.201-14.801,13.301-28.702,17.301-45.103c-3.601,0.6-10.801,1.601-15.201,2.4l-1.1-12.401l18.601-2.1
	c1.3-7.3,2.601-15.701,3.5-24.102L741.741,234.002z M780.443,283.306c-2.3-13.301-11.201-25.802-19.801-33.102l9.701-6.9
	c10.4,7.7,20.801,22.501,23.001,35.202L780.443,283.306z"/>
<path fill="#FFFFFF" d="M836.84,251.904c-0.5,1.1-1.2,1.5-2.6,1.7c-1.2,13.901-2.3,21.901-4.1,24.501h0.1
	c8.901-6.2,23.001-10.2,32.502-10.2c14.601,0,25.602,8.1,25.502,23.001c-0.1,19.102-14.501,28.402-54.503,30.002
	c-0.9-3.1-2.7-8.2-4.601-11.601c33.302-1.3,45.403-6.2,45.503-18.101c0.1-7.101-5.1-11.901-13.901-11.901
	c-12.401,0-27.802,6-33.602,15.201l-11.601-5.2c2.1-1.601,5.7-21.001,5.9-39.303L836.84,251.904z M834.84,230.802
	c12.101,1.3,28.001,3.9,38.502,7.9l-4.101,12.301c-10-4.1-26.801-7.2-38.102-8.5L834.84,230.802z"/>
<path fill="#FFFFFF" d="M965.442,252.704c-0.4,0.9-1.6,1.7-3,1.7c-4.1,34.202-14.101,54.003-31.302,54.003
	c-10.901,0-18.801-9.201-18.801-26.202c0-25.602,20.401-44.403,45.903-44.403c28.302,0,42.803,16.801,42.803,38.502
	c0,23.501-12.101,35.702-37.302,42.103c-1.9-3-4.7-7.201-8-10.601c22.801-4.5,31.902-15.401,31.902-31.302
	c0-16.101-11.201-27.002-29.602-27.002c-1.8,0-3.4,0.2-5.101,0.4L965.442,252.704z M949.541,250.704
	c-15.201,3.6-24.902,16.701-24.902,31.002c0,8.4,2.5,14.301,6.9,14.301C941.34,296.006,947.841,274.105,949.541,250.704z"/>
<path fill="#FFFFFF" d="M1094.543,283.806l7,1.3c0,1-0.2,2.3-0.6,3.3c-2.8,33.102-6.101,34.902-23.202,34.902
	c-2.9,0-6.4-0.1-9.9-0.2c-0.2-3.3-1.8-7.9-3.9-10.9c6.2,0.5,12.601,0.6,15.301,0.6c2.1,0,3.3-0.1,4.601-1
	c1.8-1.6,3.3-6.7,4.4-17.001h-26.602c-4.8,12.701-14.801,22.702-40.902,28.602c-1.1-3.101-4-8-6.5-10.701
	c19.801-3.8,29.202-9.801,33.902-17.901h-29.602v-10.801h33.502c0.4-2.2,0.8-4.6,1.1-7h-27.401v-43.103h71.904v43.103h-29.302
	c-0.3,0.7-1.2,1.2-2.6,1.5c-0.3,1.9-0.7,3.7-1.1,5.5h27.202L1094.543,283.806z M1037.84,243.803v6.9h17.301v-6.9H1037.84z
	 M1037.84,260.004v7.101h17.301v-7.101H1037.84z M1085.042,250.704v-6.9h-17.801v6.9H1085.042z M1085.042,267.104v-7.101h-17.801
	v7.101H1085.042z"/>
<path fill="#FFFFFF" d="M1175.442,252.704c-0.4,0.9-1.6,1.7-3,1.7c-4.1,34.202-14.101,54.003-31.302,54.003
	c-10.901,0-18.801-9.201-18.801-26.202c0-25.602,20.401-44.403,45.903-44.403c28.302,0,42.802,16.801,42.802,38.502
	c0,23.501-12.1,35.702-37.301,42.103c-1.9-3-4.7-7.201-8-10.601c22.801-4.5,31.902-15.401,31.902-31.302
	c0-16.101-11.201-27.002-29.602-27.002c-1.8,0-3.4,0.2-5.101,0.4L1175.442,252.704z M1159.541,250.704
	c-15.201,3.6-24.902,16.701-24.902,31.002c0,8.4,2.5,14.301,6.9,14.301C1151.34,296.006,1157.841,274.105,1159.541,250.704z"/>
<path fill="#FFFFFF" d="M1233.639,292.606c7,5.701,16.801,15.701,21.602,21.301l-10.301,9.401
	c-4.501-5.9-14.602-16.901-20.602-22.501L1233.639,292.606z"/>
<path fill="#FFFFFF" d="M1422.645,299.707h-33.403c7.001,7.701,18.501,11.5,35.603,12.601c-2.601,2.7-5.699,7.801-7.199,11.101
	c-21.002-2.4-33.203-9.101-41.104-22.501c-5.001,10.601-15.501,18.001-41.303,22.301c-0.9-3.2-3.801-8.201-6-10.801
	c19.101-2.5,28.701-6.6,33.701-12.701h-31.901v-10.5h36.603c0.399-1.9,0.699-4,1-6.201h-37.503v-10.701h39.103v-5.1h-28.701v-10.101
	h28.701v-4.9h-34.202v-10.601h18.201c-1.4-2.9-3.4-6.101-5.5-8.601l10.301-4.1c3.2,3.4,6.3,8.2,7.5,11.601l-2.5,1.1h23.103
	l-1.602-0.6c2.602-3.4,5.602-8.5,7.201-12.201l14,4.6c-0.399,0.8-1.3,1.1-2.7,1.1c-1.5,2.1-3.6,4.7-5.6,7.101h19.001v10.601h-34.803
	v4.9h29.603v10.101h-29.603v5.1h39.703v10.701h-38.603c-0.4,0.8-1.2,1.3-2.601,1.5l-0.899,4.701h42.403V299.707z"/>
<path fill="#FFFFFF" d="M1497.143,255.404c-7.602,2.5-17.602,4.1-27.402,4.9c-3.9,21.001-10.101,43.703-17.201,60.304l-13.001-4.601
	c7.9-15.801,13.701-34.802,17.102-55.003c-1.601,0.1-8.701,0.1-10.601,0.1c-2.101,0-4.101,0-5.801-0.1l-0.2-11.901
	c3.2,0.2,8.4,0.2,13.201,0.2c1.6,0,3.4-0.1,5.1-0.1c0.801-5.8,1.501-12.701,2.001-18.501l16.301,1.4c-0.101,1.2-1.3,2.1-2.801,2.4
	c-0.5,3.601-1.3,9-2,13.501c7.9-1,16.102-2.5,22.901-5.101L1497.143,255.404z M1523.844,318.708c-3.4,0.2-7.001,0.3-10.602,0.3
	c-8.1,0-16-0.5-21.001-1.7c-8.9-2.1-13.3-8.201-13.2-15.201c0.1-4.801,2.199-10.101,6.4-14.801l10.701,3.9
	c-3.102,3.3-4.602,6.3-4.602,8.8c0,5.5,5.102,6.801,18.901,6.801c4.5,0,9.301-0.2,13.202-0.6L1523.844,318.708z M1485.841,268.405
	c10.001-3.2,24.002-5,35.702-4.9v12c-10.801-0.3-23.001,0.9-33.002,3.7L1485.841,268.405z M1503.342,233.703
	c4.501,3.4,10.101,9,12.901,13l-5.7,4.9c-2.301-3.7-8.601-10.201-12.4-13.101L1503.342,233.703z M1517.243,227.702
	c4.7,3.5,10,8.601,12.801,12.901l-5.601,4.9c-2.4-3.5-8.301-9.801-12.4-13.001L1517.243,227.702z"/>
<path fill="#FFFFFF" d="M1577.74,233.803c-0.2,1.2-1.1,2-3,2.3c-0.9,13.301-1.9,36.702-1.9,51.403
	c0,12.801,6.5,18.801,17.201,18.801c9.9,0,20.901-5.101,32.302-16.501c1.5,2.8,5.4,9.2,7.302,11.3
	c-12.502,12.401-25.703,18.201-39.703,18.201c-22.202,0-30.803-12.101-30.803-31.802c0-13.401,0.7-42.403,1.4-54.503
	L1577.74,233.803z"/>
<path fill="#FFFFFF" d="M1688.041,232.103c-0.301,1-1.4,1.9-3.1,2.1c-0.5,3.6-1.5,8.5-2.102,11.4c7.102-0.5,17.303-2.2,24.602-4.6
	l1.5,11.901c-8.601,2-18.601,3.5-28.401,4.3c-4.601,18.301-10.601,33.602-19.301,47.803l-12.401-4.4
	c8.301-12.601,14.901-27.501,18.302-43.103h-17.302v-11.301h11.101c3.001,0,6.001-0.1,8.201-0.1c0.899-4.8,1.7-10.2,2.1-15.401
	L1688.041,232.103z M1713.542,275.705c0.101,6,0.4,11.701,0.9,17.501c5.4,2.2,14.101,6.4,19.401,10.201l-5.9,11.701
	c-3.7-3.1-9.701-6.6-13.501-8.701c-0.101,1.9-0.4,3.101-0.7,4.101c-2.1,6.5-7.4,11.201-19.401,11.201
	c-9.101,0-20.201-4.4-20.201-16.201c0.2-10.301,10.302-16.201,20.201-16.201c2.5,0,5.101,0.3,7.802,0.8
	c-0.301-4.8-0.401-9.801-0.401-13.001L1713.542,275.705z M1702.842,301.106c-2.699-1.1-6.4-1.6-8.801-1.6c-4.9,0-9.1,2.2-9.201,6
	c0,3.7,3.701,6,9.401,6c4.8,0,8.601-2.4,8.601-7.3V301.106z M1732.743,268.504c-10.9,0.1-23.802,1.5-34.902,4.101l-1.7-10.901
	c11.401-2.9,24.902-5,35.803-5L1732.743,268.504z"/>
<path fill="#FFFFFF" d="M1836.043,258.704c-0.3,1.2-1.5,1.9-3,1.9c-1.1,5.5-2.8,12.901-4.5,19.001c4.6,2,10,4.5,14.9,7l-5.5,12.101
	c-4.601-2.5-8.9-4.8-13.101-6.9c-4.601,12.801-11.101,22.901-20.502,29.202c-2.5-2.2-7.3-5.3-10.4-7
	c9.202-6,15.202-15.101,19.401-27.401c-7.301-2.9-13.9-5-19.701-5.9c-6.9,24.201-14.301,30.102-26.302,30.102
	c-13.301,0-16.101-10.601-16.101-18.001c0-15.801,16.701-24.001,32.901-23.901c1.801-6.801,3.301-15.001,4.301-22.702
	c-4.801,0.5-17.301,1.6-24.901,2c-0.601,0.9-1.5,1.3-2.5,1.6l-1.301-13.201c10.9-0.4,28.302-1.6,33.002-2
	c1.101-0.2,1.9-0.8,2.601-1.4l10,5.1c-0.5,0.8-1.5,1.5-2.6,2c-1.5,8.801-4.101,21.401-6.301,29.502c6.2,0.7,12.901,2.8,20.202,5.3
	c1.5-5.1,3-12.901,4-19.801L1836.043,258.704z M1781.439,279.706c-10.9,0.1-19.001,5.3-19.001,13.201c0,4.1,1.9,6.8,5.2,6.8
	C1772.539,299.707,1776.439,297.406,1781.439,279.706z"/>
<path fill="#FFFFFF" d="M1388.023,188.885c-0.09,0.33-0.42,0.54-0.87,0.54c-0.33,2.07-0.81,4.26-1.32,6.12
	c1.62,0.69,3.33,1.47,5.04,2.34l-0.96,2.01c-1.62-0.81-3.18-1.59-4.71-2.25c-1.439,4.32-3.51,7.47-6.689,9.57
	c-0.42-0.42-1.17-0.93-1.71-1.26c3.15-2.07,5.1-4.89,6.479-9.18c-3.029-1.2-5.789-2.04-8.01-2.22c-2.069,7.56-3.93,9.54-7.529,9.54
	s-4.29-2.88-4.29-4.71c0-4.649,4.83-6.81,10.2-6.839c0.63-2.4,1.199-5.34,1.619-8.46c-1.409,0.12-6.209,0.45-8.489,0.6
	c-0.12,0.21-0.36,0.36-0.63,0.42l-0.271-2.43c2.58-0.09,8.16-0.45,9.96-0.63c0.33-0.03,0.45-0.18,0.66-0.33l1.859,1.11
	c-0.149,0.24-0.39,0.36-0.75,0.48c-0.479,3.33-1.199,6.78-1.859,9.359c2.31,0.18,5.069,0.99,8.069,2.13
	c0.51-1.8,0.96-4.11,1.29-6.54L1388.023,188.885z M1373.174,194.435c-4.319,0.06-7.77,1.77-7.77,4.95c0,1.68,0.81,2.82,2.22,2.82
	C1369.814,202.204,1371.254,201.455,1373.174,194.435z"/>
</svg>
